PathFileType	4	(X/Y/Z)	RBDS002\RBDS002runT35.trc
DataRate	CameraRate	NumFrames	NumMarkers	Units	OrigDataRate	OrigDataStartFrame	OrigNumFrames
150.000000	150.000000	4	33	mm	150.000000	1125	4500
Frame#	Time	L.ASIS			L.Heel.Bottom			L.Heel.Lateral			L.Heel.Top			L.Iliac.Crest			L.MT1			L.MT5			L.PSIS			L.Shank.Bottom.Lateral			L.Shank.Bottom.Medial			L.Shank.Top.Lateral			L.Shank.Top.Medial			L.Thigh.Bottom.Lateral			L.Thigh.Bottom.Medial			L.Thigh.Top.Lateral			L.Thigh.Top.Medial			R.ASIS			R.ASY			R.Heel.Bottom			R.Heel.Lateral			R.Heel.Top			R.Iliac.Crest			R.MT1			R.MT5			R.PSIS			R.Shank.Bottom.Lateral			R.Shank.Bottom.Medial			R.Shank.Top.Lateral			R.Shank.Top.Medial			R.Thigh.Bottom.Lateral			R.Thigh.Bottom.Medial			R.Thigh.Top.Lateral			R.Thigh.Top.Medial			
		X1	Y1	Z1	X2	Y2	Z2	X3	Y3	Z3	X4	Y4	Z4	X5	Y5	Z5	X6	Y6	Z6	X7	Y7	Z7	X8	Y8	Z8	X9	Y9	Z9	X10	Y10	Z10	X11	Y11	Z11	X12	Y12	Z12	X13	Y13	Z13	X14	Y14	Z14	X15	Y15	Z15	X16	Y16	Z16	X17	Y17	Z17	X18	Y18	Z18	X19	Y19	Z19	X20	Y20	Z20	X21	Y21	Z21	X22	Y22	Z22	X23	Y23	Z23	X24	Y24	Z24	X25	Y25	Z25	X26	Y26	Z26	X27	Y27	Z27	X28	Y28	Z28	X29	Y29	Z29	X30	Y30	Z30	X31	Y31	Z31	X32	Y32	Z32	X33	Y33	Z33	

1126	7.500000000000001	2250.290583440513	1047.234419695951	934.8379308384278	2345.292719955329	59.88532928837932	1008.915706438331	2379.385455522352	63.48740147856913	963.3674482912121	2352.037226102379	108.7161683277722	995.8514498371541	2147.688643040059	1123.297011618913	876.8388960368545	2565.890320301635	103.7009019160224	1061.709780121472	2545.699212685222	65.69552819967724	952.7596564354212	2061.707094251362	1074.251008094119	983.8107079155488	2402.722981531541	199.6413892396934	938.9904462772724	2360.781988962226	196.6751820396736	968.8667735703461	2385.236544346926	275.3385812899825	916.0661064335678	2342.379319844754	276.9495218091697	947.741812098062	2334.570959112375	632.6922042990619	888.3840671979635	2280.879462207453	603.9407670167361	928.5190337304127	2268.700123006703	718.866382444965	866.185125945617	2219.43371453302	693.2436114535569	905.792051809482	2235.955167932338	1018.591093962262	1149.349907209273	1591.33798053685	329.2909142325688	1104.143044432565	1554.20510264223	516.3883080333301	1048.393813429094	1560.244382520608	501.2254167030453	1093.512812632502	1600.98112187761	499.4724132323899	1057.223306664951	2164.013285821653	1114.765425974261	1186.118792496191	1543.093501816324	280.6474830974579	1065.933430608483	1528.695314844881	336.9093097701023	1162.321244665585	2062.568227853154	1071.415182540849	1071.872856096171	1674.796950673676	469.2594028007038	1133.28529921843	1670.635650454687	503.9767561173703	1091.301287556626	1749.343133097864	498.7832522129123	1147.807641383	1744.569026731987	531.5944309133625	1105.267728214727	2036.930357153523	612.3534778924349	1171.051482684674	1998.080314304378	629.8796857912407	1110.067229933796	2048.785445658743	720.4137066207546	1191.592736259377	2010.862064462386	736.2350366330646	1134.622671555193	
1127	7.506666666666667	2250.496352232899	1043.40271471206	934.8054382105594	2329.617247359318	55.78796281306519	1011.634490692817	2363.001664874167	58.41812289697537	965.4456621112485	2337.661686931238	104.427152957278	998.5164898829286	2146.507646915767	1118.378520641902	877.5563173478687	2552.400507444957	93.93329172523083	1060.745279888883	2529.468355079865	57.37760495069857	951.5621299113106	2062.085488863555	1067.963501259524	985.2667404263219	2391.073490673748	192.3984478204137	939.9888334074118	2349.166779259254	190.6917943901587	969.9266285314263	2375.620844866631	268.4404391086336	916.8809592511085	2332.886732438293	271.3959254533307	948.6085408793451	2332.619097258083	627.1756810229949	888.3954886712321	2278.948734646034	598.5467011126993	928.6268892108428	2267.201329269125	713.7785819739773	866.7686525249595	2217.907517971619	688.1696173287203	906.3778574570809	2236.573288890737	1013.714207229082	1149.651288785534	1597.342531513093	339.4180166086738	1103.233176571497	1564.836666864178	527.4135119625092	1047.519526835824	1570.478366524465	512.1517281117696	1092.710654236825	1611.162850703604	509.2827547963973	1056.360886167757	2164.514698009443	1109.099191914084	1187.059582341213	1547.818695099301	291.9902690122008	1065.091232582265	1534.89364906711	348.6253078903376	1161.558471208513	2062.872385066788	1064.83506853265	1073.486635472499	1684.482777807234	475.4579437711512	1132.664032794132	1681.726002831346	510.7290854886689	1090.997018035375	1760.097724002995	501.8895304627261	1147.527615739999	1756.650176207462	535.1757723643046	1105.241486096337	2044.95181630881	603.8639104418938	1171.475074340511	2005.726685322215	620.5461671939792	1110.549691605911	2054.489743407331	712.1321099844408	1192.020020171751	2016.165580958801	727.0824031850352	1135.113571779546	
1128	7.513333333333334	2250.647034315657	1039.129333500877	934.7598514079231	2312.372353113064	51.97024607037527	1014.237923841847	2345.087735709254	54.01248393304848	967.5151929708918	2321.692056474483	100.475883633872	1001.438352331977	2145.475243680406	1113.146779936777	878.0691221862626	2537.183565274978	84.61881190566929	1060.269107156723	2511.743322842363	50.19774875676924	950.5478125511256	2062.46342147216	1061.526381205933	986.718164048308	2378.290913638972	185.2231321331317	941.4376923214014	2336.322300184128	184.9291100943837	971.2213049511082	2365.191990705826	261.5460300810416	918.0126536336523	2322.515832848254	266.0062029186343	949.6165496163796	2330.360437106226	621.1890072279798	888.4994677021666	2276.722024998566	592.7988519389813	928.9321822476862	2265.41549094395	708.2070129959503	867.315314406643	2216.14404425545	682.7197769084315	907.0515275745959	2237.160337582371	1008.432128403742	1149.857157723717	1604.68765357474	348.7271327947798	1102.118233863562	1576.388357408217	537.4654994455082	1046.904245819859	1581.712741249922	522.0678551517954	1092.135692594249	1622.315997645811	518.2842506980838	1055.641612617931	2165.3667604731	1102.811321319927	1188.076461798895	1553.985456612013	302.5534307968651	1063.994114541734	1542.508118860259	359.2750574968679	1160.668795241268	2063.097483227602	1057.895149306997	1075.123549658607	1695.117191190474	480.9861168432708	1132.088244384358	1693.765912370515	516.6996098290498	1090.706910926937	1771.635380737147	504.3889762251225	1147.308796097829	1769.514767489265	538.0362049770172	1105.247587896581	2052.863102422008	595.3306175435347	1171.866229816079	2013.3898748032	611.0326666225848	1110.91234561014	2060.045350335883	703.789935423275	1192.238201546464	2021.403842509782	717.7695852786685	1135.326519514413	
1129	7.52	2250.684282181545	1034.395679417606	934.728104746805	2293.716955332738	48.58248371135558	1016.672711352177	2325.855581470172	50.46421998161004	969.559738611229	2304.240094259266	97.02102081665153	1004.568280542553	2144.682248635317	1107.538478822422	878.3114409640325	2520.304713590775	76.15453703862853	1060.392546914204	2492.719174665908	44.43024034048008	949.8727983232536	2062.738569001202	1055.048729961919	988.1235997043345	2364.462027617536	178.4138873855008	943.3775027687474	2322.338141323031	179.678800376649	972.7829108900463	2354.025488977605	254.9306228685709	919.5029202134452	2311.350514299538	261.0379878949607	950.8047430894258	2327.830491394449	614.868728240413	888.7066005572451	2274.238446353597	586.836721612461	929.449786109619	2263.354237871469	702.2665170962817	867.8015640025263	2214.152598705927	677.0134151588761	907.7910451915673	2237.680901331082	1002.776210412253	1149.953449927578	1613.282400078258	357.1346703925161	1100.857232104592	1588.799155714388	546.4993275214101	1046.478454682181	1593.869187229714	530.936185437758	1091.726005725014	1634.380721337073	526.4242749286016	1055.028618467454	2166.444645803023	1095.96666085053	1189.134048530395	1561.498326471983	312.2479019522969	1062.701150124473	1551.417614105909	368.8259600324113	1159.666052348502	2063.194902229816	1050.707885288652	1076.720371696863	1706.627347460611	485.8397889819944	1131.553236615619	1706.683108231372	521.856666186941	1090.405108810029	1783.89010105859	506.3005239022496	1147.146941734773	1783.10334418736	540.1720382311876	1105.259824656352	2060.713306282793	586.7810204898333	1172.270066292951	2021.124166471815	601.3802954852124	1111.201930029275	2065.492971238994	695.4141459249408	1192.305869470286	2026.610001352348	708.3397044534481	1135.326789122691	
